<svg xmlns="http://www.w3.org/2000/svg" viewBox="0 0 330.75 254.3"><defs><style>.a{fill:#fff;}</style></defs><title>RSP2018_RBG_MASTER_white</title><path class="a" d="M108.81,76.44a46,46,0,0,0-4.36-8.29,40.34,40.34,0,0,0-2,3.67,41.65,41.65,0,0,0-3.74,18.11,36.32,36.32,0,0,0,1.83,12,26,26,0,0,0,5.66,9.31c.31.34.64.67,1,1l.06-.13A43.93,43.93,0,0,0,112,92,41.24,41.24,0,0,0,108.81,76.44Z" transform="translate(-2.32 -2.56)"/><path class="a" d="M190,153.75q4.08-7.58,4.09-18.72a37.54,37.54,0,0,0-2.61-14.8A28.47,28.47,0,0,0,184,109.87a43.35,43.35,0,0,0-6.27-4.52V166.8c.5-.31,1-.62,1.48-1A33.58,33.58,0,0,0,190,153.75Z" transform="translate(-2.32 -2.56)"/><path class="a" d="M177.76,172.81h34V134.86h20.2a38.5,38.5,0,0,0,16.63-3.57,39.43,39.43,0,0,0,12.88-9.58A44.57,44.57,0,0,0,269.69,108a44.1,44.1,0,0,0,3-15.93,41.22,41.22,0,0,0-3.13-15.58,45.52,45.52,0,0,0-8.62-13.76,43.52,43.52,0,0,0-13.14-9.75A37.68,37.68,0,0,0,231,49.19H177.76v3q2.72,1.07,5.24,2.19c3.5,1.58,6.7,3.09,9.51,4.5l2.73,1.36-1.41,2.71L179.2,91l-1.44,2.77v8.14a48.54,48.54,0,0,1,8.25,5.73,31.72,31.72,0,0,1,8.26,11.44,40.53,40.53,0,0,1,2.86,16c0,7.89-1.5,14.67-4.45,20.14a36.63,36.63,0,0,1-11.76,13.16c-1,.69-2.08,1.34-3.16,1.94Zm34-94h17.07A9.49,9.49,0,0,1,235,81.57q3.14,2.79,3.14,10.45,0,7.49-2.7,10.36a7.92,7.92,0,0,1-5.83,2.87H211.71Z" transform="translate(-2.32 -2.56)"/><path class="a" d="M181.77,57.11c-1.3-.58-2.64-1.14-4-1.69V87.25l13.41-25.7Q187,59.47,181.77,57.11Z" transform="translate(-2.32 -2.56)"/><path class="a" d="M125,171.82q4.1.9,8.23,1.52a96.94,96.94,0,0,0,13.93,1,73.61,73.61,0,0,0,17-2,47,47,0,0,0,10.67-3.9v-64.8c-.81-.42-1.63-.82-2.48-1.21a127.11,127.11,0,0,0-15.41-5.75q-5.4-1.74-9.67-3A56.49,56.49,0,0,1,140,91.24a14.62,14.62,0,0,1-4.53-2.88,5.42,5.42,0,0,1-1.57-4,4.87,4.87,0,0,1,2.7-4.7,15.85,15.85,0,0,1,7.23-1.39,38.28,38.28,0,0,1,11.4,1.82A100.07,100.07,0,0,1,165.75,84a96.11,96.11,0,0,1,9,4.54V54.25c-1.38-.51-2.78-1-4.22-1.49a105.23,105.23,0,0,0-12.45-3.31,66.58,66.58,0,0,0-13.24-1.31,56.08,56.08,0,0,0-17.5,2.7,45.6,45.6,0,0,0-14.71,7.92,36,36,0,0,0-6.38,6.72,49.53,49.53,0,0,1,5.33,9.83A44.38,44.38,0,0,1,115,92a47.06,47.06,0,0,1-5,21.46c-.14.28-.29.55-.44.82a41.92,41.92,0,0,0,6.47,4.27,89.62,89.62,0,0,0,14.1,6q5.58,1.92,10.54,3.31t8.79,2.79a20.1,20.1,0,0,1,6,3.22,5.6,5.6,0,0,1,2.17,4.44,4.54,4.54,0,0,1-2.17,3.92c-1.46,1-4,1.48-7.75,1.48a50.42,50.42,0,0,1-14.37-2.09,89.67,89.67,0,0,1-12.62-4.71,101.13,101.13,0,0,1-12.71-6.79l-3.79,7.73,20.45,33.37Z" transform="translate(-2.32 -2.56)"/><path class="a" d="M120.84,170.85l-18.26-29.79-9.27,18.87a87.75,87.75,0,0,0,12.1,5.92A125.12,125.12,0,0,0,119,170.38Z" transform="translate(-2.32 -2.56)"/><path class="a" d="M87.05,52.93a37.68,37.68,0,0,0-16.72-3.74H13.57V172.81h34V134.86H60.23l23.51,37.95h32.87a126.21,126.21,0,0,1-12.31-4.18,89.87,89.87,0,0,1-12.52-6.12l-2.38-1.42,1.22-2.48L100.72,138l-6.53-10.67A40.75,40.75,0,0,0,105.67,115c-.58-.54-1.14-1.09-1.66-1.65a29.08,29.08,0,0,1-6.3-10.37,39.33,39.33,0,0,1-2-13,44.64,44.64,0,0,1,4-19.4,41.93,41.93,0,0,1,2.83-5c-.76-1-1.55-1.93-2.39-2.85A43.52,43.52,0,0,0,87.05,52.93ZM74.77,101.77c-1.8,2.33-3.74,3.48-5.83,3.48H47.52V78.79H68.07q3.14,0,6.27,3.39T77.47,92Q77.47,98.29,74.77,101.77Z" transform="translate(-2.32 -2.56)"/><path class="a" d="M2.32,256.15l20.76-55.63H35.46l20.69,55.63H40l-3.37-10.89H21.83l-3.29,10.89Zm27-39.73L24.1,235.07H34.21Z" transform="translate(-2.32 -2.56)"/><path class="a" d="M130.2,200.44l-15.8,55.63H99.82L88.71,225.51l-11,30.64H63.1L47.29,200.52h16L71.83,233l9.23-32.52h15.3L105.67,233l8.51-32.52Z" transform="translate(-2.32 -2.56)"/><path class="a" d="M120.89,256.15l20.76-55.63H154l20.69,55.63H158.58l-3.37-10.89H140.4l-3.29,10.89Zm27-39.73-5.17,18.65h10.11Z" transform="translate(-2.32 -2.56)"/><path class="a" d="M180.44,256.15V200.52H206a16.92,16.92,0,0,1,7.52,1.68,19.74,19.74,0,0,1,5.92,4.39,20.63,20.63,0,0,1,3.88,6.19,18.58,18.58,0,0,1,1.41,7,19.79,19.79,0,0,1-2.12,9.05,18.5,18.5,0,0,1-5.87,6.86l12.53,20.45H212l-10.57-17.08h-5.72v17.08Zm15.28-30.4h9.63a3.38,3.38,0,0,0,2.63-1.57,7,7,0,0,0,1.21-4.39,6.27,6.27,0,0,0-1.41-4.42,4,4,0,0,0-2.82-1.53h-9.24Z" transform="translate(-2.32 -2.56)"/><path class="a" d="M235.75,256.15V200.52h21.4a31.34,31.34,0,0,1,12.14,2.19,24.43,24.43,0,0,1,14.1,14.77,33.46,33.46,0,0,1-.19,22.25,24.84,24.84,0,0,1-5.68,8.78,25.46,25.46,0,0,1-8.86,5.64,31.7,31.7,0,0,1-11.51,2Zm33.93-27.89a19.15,19.15,0,0,0-.86-5.88,13.28,13.28,0,0,0-2.47-4.55,11.13,11.13,0,0,0-4-2.93,12.6,12.6,0,0,0-5.25-1.06H251v29h6.12a12.43,12.43,0,0,0,5.32-1.1,11.15,11.15,0,0,0,4-3,13.54,13.54,0,0,0,2.43-4.63A19.43,19.43,0,0,0,269.68,228.26Z" transform="translate(-2.32 -2.56)"/><path class="a" d="M325.16,218.7a42.94,42.94,0,0,0-4.86-2.51,42,42,0,0,0-4.74-1.76,17.07,17.07,0,0,0-5.13-.83,7.13,7.13,0,0,0-3.26.63,2.19,2.19,0,0,0-1.21,2.12,2.44,2.44,0,0,0,.71,1.8,6.58,6.58,0,0,0,2,1.29,26.59,26.59,0,0,0,3.25,1.14c1.28.36,2.73.81,4.35,1.33a56.94,56.94,0,0,1,6.94,2.58,22,22,0,0,1,5.29,3.33,13,13,0,0,1,3.37,4.67,17,17,0,0,1,1.17,6.66,17.5,17.5,0,0,1-1.84,8.42,15.18,15.18,0,0,1-4.86,5.45,20.61,20.61,0,0,1-6.82,2.93,33,33,0,0,1-7.63.9,42.34,42.34,0,0,1-6.27-.47,52.56,52.56,0,0,1-6.39-1.33,56.08,56.08,0,0,1-6.11-2,40,40,0,0,1-5.45-2.67l6.59-13.4A45.39,45.39,0,0,0,300,240a39.88,39.88,0,0,0,5.68,2.11,22.49,22.49,0,0,0,6.46.94,6.66,6.66,0,0,0,3.49-.66,2,2,0,0,0,1-1.76,2.53,2.53,0,0,0-1-2,9.1,9.1,0,0,0-2.71-1.45c-1.15-.42-2.46-.84-3.95-1.26s-3.07-.91-4.74-1.48a40.61,40.61,0,0,1-6.35-2.71,17,17,0,0,1-4.39-3.29,11.6,11.6,0,0,1-2.54-4.19,16.31,16.31,0,0,1-.83-5.41,18.61,18.61,0,0,1,1.69-8.15,16.64,16.64,0,0,1,4.58-5.87,20.45,20.45,0,0,1,6.62-3.57,25.24,25.24,0,0,1,7.88-1.21,29.29,29.29,0,0,1,6,.59,47.38,47.38,0,0,1,5.6,1.48c1.81.61,3.49,1.26,5.06,2s3,1.37,4.23,2Z" transform="translate(-2.32 -2.56)"/><path class="a" d="M13.37,181.35h2.39v1.4a3,3,0,0,1,1-1.26,2.54,2.54,0,0,1,1.41-.43,2.63,2.63,0,0,1,1.13.29l-.87,2.4a1.8,1.8,0,0,0-.8-.25,1.29,1.29,0,0,0-1.09.8,7.22,7.22,0,0,0-.44,3.12v5H13.37Z" transform="translate(-2.32 -2.56)"/><path class="a" d="M31.83,187.7H22.88a3,3,0,0,0,1,1.89,3.31,3.31,0,0,0,2.15.7,3.73,3.73,0,0,0,2.69-1.1l2.34,1.11a5.48,5.48,0,0,1-2.1,1.84,6.54,6.54,0,0,1-2.91.59,5.72,5.72,0,0,1-4.25-1.64A5.6,5.6,0,0,1,20.19,187a5.81,5.81,0,0,1,1.63-4.22,5.51,5.51,0,0,1,4.11-1.68,5.68,5.68,0,0,1,4.26,1.68,6.05,6.05,0,0,1,1.65,4.43ZM29,185.51A2.79,2.79,0,0,0,28,184a3.13,3.13,0,0,0-1.88-.58,3.39,3.39,0,0,0-2.05.65,3.75,3.75,0,0,0-1,1.44Z" transform="translate(-2.32 -2.56)"/><path class="a" d="M34.42,177.26H37.2v4.09h1.66v2.4H37.2v8.7H34.42v-8.7H33v-2.4h1.43Z" transform="translate(-2.32 -2.56)"/><path class="a" d="M48.54,181.35h2.78v11.1H48.54v-1.17a5.47,5.47,0,0,1-1.64,1.11,4.52,4.52,0,0,1-1.78.34,5,5,0,0,1-3.72-1.66,5.86,5.86,0,0,1-1.56-4.15,6,6,0,0,1,1.51-4.21A4.85,4.85,0,0,1,45,181.06a4.75,4.75,0,0,1,1.88.38,5.23,5.23,0,0,1,1.62,1.13Zm-2.93,2.28a2.79,2.79,0,0,0-2.14.92,3.29,3.29,0,0,0-.86,2.34,3.33,3.33,0,0,0,.87,2.37,2.84,2.84,0,0,0,2.14.92,2.87,2.87,0,0,0,2.18-.91,3.37,3.37,0,0,0,.86-2.39,3.27,3.27,0,0,0-.86-2.35A2.92,2.92,0,0,0,45.61,183.63Z" transform="translate(-2.32 -2.56)"/><path class="a" d="M55.23,176.78a1.72,1.72,0,0,1,1.25.53,1.81,1.81,0,0,1,0,2.55,1.74,1.74,0,0,1-2.51,0,1.77,1.77,0,0,1-.52-1.3,1.76,1.76,0,0,1,1.77-1.77Zm-1.4,4.57h2.79v11.1H53.83Z" transform="translate(-2.32 -2.56)"/><path class="a" d="M58.84,177.06h2.79v15.39H58.84Z" transform="translate(-2.32 -2.56)"/><path class="a" d="M76.8,182.9l-1.73,1.72a2.92,2.92,0,0,0-1.9-1,1.23,1.23,0,0,0-.74.2.61.61,0,0,0-.26.5.58.58,0,0,0,.17.41,2.89,2.89,0,0,0,.83.52l1,.51a6,6,0,0,1,2.21,1.62,3.39,3.39,0,0,1-.48,4.41,4.23,4.23,0,0,1-2.92,1,4.62,4.62,0,0,1-3.87-1.89L70.84,189a3.92,3.92,0,0,0,1.15.92,2.51,2.51,0,0,0,1.17.36A1.36,1.36,0,0,0,74,190a.76.76,0,0,0,.34-.61c0-.43-.4-.85-1.21-1.26l-.94-.47q-2.7-1.35-2.7-3.39a2.94,2.94,0,0,1,1-2.25,3.66,3.66,0,0,1,2.6-.94,4.55,4.55,0,0,1,3.65,1.84Z" transform="translate(-2.32 -2.56)"/><path class="a" d="M87.39,181.35h2.78v11.1H87.39v-1.17a5.35,5.35,0,0,1-1.64,1.11,4.5,4.5,0,0,1-1.77.34,4.92,4.92,0,0,1-3.72-1.66,5.83,5.83,0,0,1-1.57-4.15,6,6,0,0,1,1.51-4.21,4.85,4.85,0,0,1,3.69-1.65,4.75,4.75,0,0,1,1.88.38,5.23,5.23,0,0,1,1.62,1.13Zm-2.93,2.28a2.79,2.79,0,0,0-2.14.92,3.29,3.29,0,0,0-.86,2.34,3.33,3.33,0,0,0,.87,2.37,2.84,2.84,0,0,0,2.14.92,2.87,2.87,0,0,0,2.18-.91,3.37,3.37,0,0,0,.86-2.39,3.27,3.27,0,0,0-.86-2.35A2.92,2.92,0,0,0,84.46,183.63Z" transform="translate(-2.32 -2.56)"/><path class="a" d="M92.68,177.06h2.79v15.39H92.68Z" transform="translate(-2.32 -2.56)"/><path class="a" d="M109.12,187.7h-9a3,3,0,0,0,1,1.89,3.29,3.29,0,0,0,2.15.7,3.71,3.71,0,0,0,2.68-1.1l2.35,1.11a5.58,5.58,0,0,1-2.11,1.84,6.5,6.5,0,0,1-2.9.59,5.74,5.74,0,0,1-4.26-1.64A5.64,5.64,0,0,1,97.48,187a5.78,5.78,0,0,1,1.64-4.22,5.49,5.49,0,0,1,4.1-1.68,5.72,5.72,0,0,1,4.27,1.68,6.09,6.09,0,0,1,1.64,4.43Zm-2.79-2.19a2.77,2.77,0,0,0-1.08-1.51,3.16,3.16,0,0,0-1.89-.58,3.34,3.34,0,0,0-2,.65,3.66,3.66,0,0,0-1,1.44Z" transform="translate(-2.32 -2.56)"/><path class="a" d="M118.17,182.9l-1.72,1.72a3,3,0,0,0-1.91-1,1.23,1.23,0,0,0-.74.2.61.61,0,0,0-.26.5.58.58,0,0,0,.17.41,3,3,0,0,0,.83.52l1,.51a6,6,0,0,1,2.21,1.62,3.39,3.39,0,0,1-.48,4.41,4.23,4.23,0,0,1-2.92,1,4.63,4.63,0,0,1-3.87-1.89l1.71-1.87a3.92,3.92,0,0,0,1.15.92,2.51,2.51,0,0,0,1.17.36,1.36,1.36,0,0,0,.88-.27.76.76,0,0,0,.34-.61c0-.43-.4-.85-1.21-1.26l-.94-.47c-1.8-.9-2.69-2-2.69-3.39a2.93,2.93,0,0,1,1-2.25,3.66,3.66,0,0,1,2.6-.94,4.55,4.55,0,0,1,3.65,1.84Z" transform="translate(-2.32 -2.56)"/><path class="a" d="M129.18,181.35v1.22a5.27,5.27,0,0,1,1.63-1.13,4.75,4.75,0,0,1,1.88-.38,4.82,4.82,0,0,1,3.69,1.65,6,6,0,0,1,1.52,4.21,5.83,5.83,0,0,1-1.57,4.15,5,5,0,0,1-3.72,1.66,4.6,4.6,0,0,1-1.79-.34,5.35,5.35,0,0,1-1.64-1.11v5.23h-2.77V181.35Zm2.93,2.28a2.92,2.92,0,0,0-2.19.9,3.23,3.23,0,0,0-.86,2.35,3.32,3.32,0,0,0,.86,2.39,2.89,2.89,0,0,0,2.19.91,2.84,2.84,0,0,0,2.14-.92,3.62,3.62,0,0,0,0-4.71A2.83,2.83,0,0,0,132.11,183.63Z" transform="translate(-2.32 -2.56)"/><path class="a" d="M139.55,181.35h2.39v1.4a3,3,0,0,1,1-1.26,2.54,2.54,0,0,1,1.41-.43,2.6,2.6,0,0,1,1.13.29l-.87,2.4a1.8,1.8,0,0,0-.8-.25,1.29,1.29,0,0,0-1.09.8,7.38,7.38,0,0,0-.44,3.12v5h-2.77Z" transform="translate(-2.32 -2.56)"/><path class="a" d="M152.1,181.06a6,6,0,0,1,3,.79,5.57,5.57,0,0,1,2.15,2.13,5.72,5.72,0,0,1,.78,2.91,5.83,5.83,0,0,1-.78,2.94,5.59,5.59,0,0,1-2.13,2.13,5.82,5.82,0,0,1-3,.77A5.52,5.52,0,0,1,148,191a5.89,5.89,0,0,1,.22-8.47A5.58,5.58,0,0,1,152.1,181.06Zm.05,2.63a2.85,2.85,0,0,0-2.16.9,3.19,3.19,0,0,0-.87,2.31,3.29,3.29,0,0,0,.86,2.35,2.88,2.88,0,0,0,2.16.89,2.91,2.91,0,0,0,2.18-.9,3.29,3.29,0,0,0,.86-2.34,3.21,3.21,0,0,0-.85-2.32A2.87,2.87,0,0,0,152.15,183.69Z" transform="translate(-2.32 -2.56)"/><path class="a" d="M158.94,181.35h1c0-1.46,0-2.32.07-2.58a2.13,2.13,0,0,1,.77-1.46,2.92,2.92,0,0,1,1.86-.53,5.7,5.7,0,0,1,2,.4v2.12a3.6,3.6,0,0,0-1-.18,1,1,0,0,0-.71.21.86.86,0,0,0-.17.63v1.39h1.77v2.36h-1.77v8.74h-2.78v-8.74h-1Z" transform="translate(-2.32 -2.56)"/><path class="a" d="M177.23,187.7h-8.95a3,3,0,0,0,1,1.89,3.29,3.29,0,0,0,2.15.7,3.71,3.71,0,0,0,2.68-1.1l2.35,1.11a5.58,5.58,0,0,1-2.11,1.84,6.5,6.5,0,0,1-2.9.59,5.76,5.76,0,0,1-4.26-1.64,5.64,5.64,0,0,1-1.64-4.13,5.82,5.82,0,0,1,1.64-4.22,5.49,5.49,0,0,1,4.1-1.68,5.72,5.72,0,0,1,4.27,1.68,6.09,6.09,0,0,1,1.64,4.43Zm-2.78-2.19a2.84,2.84,0,0,0-1.09-1.51,3.14,3.14,0,0,0-1.89-.58,3.34,3.34,0,0,0-2,.65,3.55,3.55,0,0,0-1,1.44Z" transform="translate(-2.32 -2.56)"/><path class="a" d="M186.28,182.9l-1.72,1.72a2.94,2.94,0,0,0-1.91-1,1.25,1.25,0,0,0-.74.2.61.61,0,0,0-.26.5.58.58,0,0,0,.17.41,3,3,0,0,0,.83.52l1,.51a6,6,0,0,1,2.21,1.62,3.39,3.39,0,0,1-.48,4.41,4.22,4.22,0,0,1-2.91,1,4.63,4.63,0,0,1-3.88-1.89l1.71-1.87a3.92,3.92,0,0,0,1.15.92,2.51,2.51,0,0,0,1.17.36,1.39,1.39,0,0,0,.89-.27.78.78,0,0,0,.33-.61c0-.43-.4-.85-1.21-1.26l-.94-.47c-1.8-.9-2.69-2-2.69-3.39a2.93,2.93,0,0,1,1-2.25,3.66,3.66,0,0,1,2.6-.94,4.55,4.55,0,0,1,3.65,1.84Z" transform="translate(-2.32 -2.56)"/><path class="a" d="M195.47,182.9l-1.72,1.72a2.94,2.94,0,0,0-1.91-1,1.2,1.2,0,0,0-.73.2.6.6,0,0,0-.27.5.62.62,0,0,0,.17.41,3,3,0,0,0,.83.52l1,.51a5.94,5.94,0,0,1,2.21,1.62,3.14,3.14,0,0,1,.61,1.94,3.23,3.23,0,0,1-1.09,2.47,4.2,4.2,0,0,1-2.91,1,4.65,4.65,0,0,1-3.88-1.89l1.71-1.87a3.92,3.92,0,0,0,1.15.92,2.51,2.51,0,0,0,1.17.36,1.39,1.39,0,0,0,.89-.27.78.78,0,0,0,.33-.61c0-.43-.4-.85-1.21-1.26l-.94-.47q-2.68-1.35-2.69-3.39a3,3,0,0,1,1-2.25,3.68,3.68,0,0,1,2.6-.94,4.51,4.51,0,0,1,3.65,1.84Z" transform="translate(-2.32 -2.56)"/><path class="a" d="M199,176.78a1.7,1.7,0,0,1,1.25.53,1.81,1.81,0,0,1,0,2.55,1.74,1.74,0,0,1-2.51,0,1.77,1.77,0,0,1-.52-1.3,1.78,1.78,0,0,1,1.77-1.77Zm-1.4,4.57h2.79v11.1h-2.79Z" transform="translate(-2.32 -2.56)"/><path class="a" d="M208.09,181.06a5.94,5.94,0,0,1,3,.79A5.57,5.57,0,0,1,213.2,184a5.72,5.72,0,0,1,.78,2.91,5.83,5.83,0,0,1-.78,2.94,5.59,5.59,0,0,1-2.13,2.13,5.82,5.82,0,0,1-3,.77A5.52,5.52,0,0,1,204,191a5.89,5.89,0,0,1,.22-8.47A5.58,5.58,0,0,1,208.09,181.06Zm0,2.63a2.85,2.85,0,0,0-2.16.9,3.19,3.19,0,0,0-.87,2.31,3.29,3.29,0,0,0,.86,2.35,2.88,2.88,0,0,0,2.16.89,2.91,2.91,0,0,0,2.18-.9,3.29,3.29,0,0,0,.86-2.34,3.21,3.21,0,0,0-.85-2.32A2.87,2.87,0,0,0,208.14,183.69Z" transform="translate(-2.32 -2.56)"/><path class="a" d="M216.25,181.35H219v1.14a6.16,6.16,0,0,1,1.72-1.11,4.08,4.08,0,0,1,1.57-.32,3.81,3.81,0,0,1,2.8,1.16,3.91,3.91,0,0,1,1,2.89v7.34h-2.75v-4.86a12.12,12.12,0,0,0-.18-2.64,1.79,1.79,0,0,0-.62-1,1.74,1.74,0,0,0-1.1-.35,2.06,2.06,0,0,0-1.45.57,3.1,3.1,0,0,0-.84,1.56A12.94,12.94,0,0,0,219,188v4.45h-2.79Z" transform="translate(-2.32 -2.56)"/><path class="a" d="M237,181.35h2.78v11.1H237v-1.17a5.47,5.47,0,0,1-1.64,1.11,4.55,4.55,0,0,1-1.78.34,5,5,0,0,1-3.72-1.66,5.87,5.87,0,0,1-1.57-4.15,6,6,0,0,1,1.52-4.21,4.82,4.82,0,0,1,3.69-1.65,4.75,4.75,0,0,1,1.88.38,5.23,5.23,0,0,1,1.62,1.13Zm-2.93,2.28a2.83,2.83,0,0,0-2.15.92,3.29,3.29,0,0,0-.85,2.34,3.33,3.33,0,0,0,.87,2.37,3,3,0,0,0,4.31,0,3.33,3.33,0,0,0,.87-2.39,3.23,3.23,0,0,0-.87-2.35A2.88,2.88,0,0,0,234.06,183.63Z" transform="translate(-2.32 -2.56)"/><path class="a" d="M242.28,177.06h2.79v15.39h-2.79Z" transform="translate(-2.32 -2.56)"/><path class="a" d="M4.83,38.93a22.31,22.31,0,0,1,.41-4.51,11.54,11.54,0,0,1,1.34-3.51A10.84,10.84,0,0,1,9,28.12a22.36,22.36,0,0,1,3.61-2.41q2.76-1.49,4.38-2.38c1.08-.6,1.89-1.08,2.43-1.46a3.48,3.48,0,0,0,1.05-.95,1.52,1.52,0,0,0,.23-.84,2.21,2.21,0,0,0-.82-1.9,3.65,3.65,0,0,0-2.25-.61,6.31,6.31,0,0,0-3.2.87,12.31,12.31,0,0,0-3.15,2.82L5.09,14a10.8,10.8,0,0,1,2.51-2A19,19,0,0,1,11,10.52a25,25,0,0,1,4-1,25.38,25.38,0,0,1,4.3-.36q5.9,0,8.94,2.43a8.21,8.21,0,0,1,3.05,6.79,8.53,8.53,0,0,1-1.51,5,9.26,9.26,0,0,1-1.67,1.82A22.38,22.38,0,0,1,26,26.79c-.85.58-1.75,1.13-2.69,1.66a32.5,32.5,0,0,0-2.79,1.77H31.83v8.71Z" transform="translate(-2.32 -2.56)"/><path class="a" d="M63.74,23.92a18.28,18.28,0,0,1-1,6.22,15.09,15.09,0,0,1-2.84,4.92,13,13,0,0,1-4.31,3.23,13.28,13.28,0,0,1-10.81,0,13,13,0,0,1-4.3-3.23,15.09,15.09,0,0,1-2.84-4.92,18,18,0,0,1-1-6.22,18,18,0,0,1,1-6.22,15.09,15.09,0,0,1,2.84-4.92,13.16,13.16,0,0,1,4.3-3.25,13,13,0,0,1,10.81,0,13.19,13.19,0,0,1,4.31,3.25,15.09,15.09,0,0,1,2.84,4.92A18.28,18.28,0,0,1,63.74,23.92Zm-9.83,0a9.7,9.7,0,0,0-1-4.82,3.1,3.1,0,0,0-2.69-1.84,3.16,3.16,0,0,0-2.79,1.84,9.7,9.7,0,0,0-1.05,4.82,9.53,9.53,0,0,0,1.05,4.79,3.15,3.15,0,0,0,2.79,1.82,3.09,3.09,0,0,0,2.69-1.82A9.53,9.53,0,0,0,53.91,23.92Z" transform="translate(-2.32 -2.56)"/><path class="a" d="M93.2,30.22v8.71H69.48V30.22h7.27V20a4.83,4.83,0,0,1-1.43,1.2,17,17,0,0,1-2.18,1.1,15.79,15.79,0,0,1-2.43.82,8.93,8.93,0,0,1-2.2.31V14.55a5.65,5.65,0,0,0,2-.54,24.44,24.44,0,0,0,2.56-1.28,19.79,19.79,0,0,0,2.33-1.59,4.88,4.88,0,0,0,1.35-1.46h9.94V30.22Z" transform="translate(-2.32 -2.56)"/><path class="a" d="M125.37,27.61a10.75,10.75,0,0,1-1.08,4.84,11.52,11.52,0,0,1-2.94,3.74A13.67,13.67,0,0,1,117,38.6a16.71,16.71,0,0,1-5.33.84,16.1,16.1,0,0,1-5.2-.84,13.57,13.57,0,0,1-4.38-2.44,12,12,0,0,1-3-3.84,11.09,11.09,0,0,1-1.13-5,7.85,7.85,0,0,1,.41-2.56,9.34,9.34,0,0,1,1.05-2.15,11.15,11.15,0,0,1,1.41-1.74,12.39,12.39,0,0,1,1.54-1.34,6.5,6.5,0,0,1-2.44-2.61,7.34,7.34,0,0,1-.95-3.53,8.94,8.94,0,0,1,1.21-4.64,11.57,11.57,0,0,1,3-3.4,13.07,13.07,0,0,1,4.09-2.08,14.09,14.09,0,0,1,8.71,0,14.55,14.55,0,0,1,4.13,2,11,11,0,0,1,3.07,3.36,8.91,8.91,0,0,1,1.2,4.64,7.42,7.42,0,0,1-1,3.58A6.64,6.64,0,0,1,121,19.51a14.28,14.28,0,0,1,1.56,1.36,9.5,9.5,0,0,1,1.41,1.82,11.59,11.59,0,0,1,1,2.25A8.49,8.49,0,0,1,125.37,27.61ZM115.48,27a3.24,3.24,0,0,0-1.1-2.61,4.16,4.16,0,0,0-2.74-.92,4.05,4.05,0,0,0-2.77.95,3.53,3.53,0,0,0,0,5.09,3.84,3.84,0,0,0,2.74,1,3.79,3.79,0,0,0,2.76-1A3.31,3.31,0,0,0,115.48,27Zm-6.66-13.47a2.38,2.38,0,0,0,.9,2,3.1,3.1,0,0,0,1.92.67,3.26,3.26,0,0,0,2-.67,2.37,2.37,0,0,0,.92-2,2.27,2.27,0,0,0-.8-1.74,3,3,0,0,0-2.07-.72,2.86,2.86,0,0,0-2,.72A2.31,2.31,0,0,0,108.82,13.57Z" transform="translate(-2.32 -2.56)"/></svg>