<svg xmlns="http://www.w3.org/2000/svg" viewBox="0 0 309.69 126.24"><defs><style>.a{fill:#a46bad;}.b{fill:#6f76b5;}.c{fill:#352157;}</style></defs><title>RSP2018_RBG_LONG</title><path class="a" d="M216.2,125.05h34v-38h20.2A38.54,38.54,0,0,0,287,83.52,39.26,39.26,0,0,0,299.86,74a44.57,44.57,0,0,0,8.27-13.76,44.1,44.1,0,0,0,3-15.93A41.22,41.22,0,0,0,308,28.68a45.52,45.52,0,0,0-8.62-13.76,43.57,43.57,0,0,0-13.15-9.75,37.47,37.47,0,0,0-16.71-3.74H216.2v3q2.72,1.06,5.24,2.19c3.5,1.58,6.7,3.09,9.51,4.5l2.73,1.36-1.41,2.71-14.63,28L216.2,46v8.14a48.54,48.54,0,0,1,8.25,5.73,31.64,31.64,0,0,1,8.26,11.44,40.5,40.5,0,0,1,2.86,16c0,7.89-1.5,14.67-4.46,20.14a36.52,36.52,0,0,1-11.75,13.16c-1,.69-2.08,1.33-3.16,1.94Zm34-94h17.07a9.53,9.53,0,0,1,6.26,2.78q3.13,2.79,3.14,10.45,0,7.49-2.7,10.36a7.92,7.92,0,0,1-5.83,2.87H250.15Z" transform="translate(-1.41 -0.38)"/><path class="b" d="M163.4,124.06c2.73.6,5.47,1.11,8.23,1.51a95.53,95.53,0,0,0,13.92,1.05,73.63,73.63,0,0,0,17-2,47,47,0,0,0,10.67-3.9V55.92c-.81-.42-1.63-.82-2.48-1.21A127.11,127.11,0,0,0,195.31,49q-5.4-1.74-9.67-3a56.49,56.49,0,0,1-7.22-2.52,14.62,14.62,0,0,1-4.53-2.88,5.38,5.38,0,0,1-1.57-4,4.86,4.86,0,0,1,2.7-4.7,15.84,15.84,0,0,1,7.23-1.4,38,38,0,0,1,11.4,1.83,100.07,100.07,0,0,1,10.54,3.92,96.11,96.11,0,0,1,9,4.54V6.49C211.82,6,210.42,5.48,209,5a104.21,104.21,0,0,0-12.45-3.31A66.4,66.4,0,0,0,183.29.38a56,56,0,0,0-17.5,2.7A45.6,45.6,0,0,0,151.08,11a35.9,35.9,0,0,0-6.38,6.71A49.61,49.61,0,0,1,150,27.55a44.33,44.33,0,0,1,3.35,16.71,47.18,47.18,0,0,1-5,21.46c-.14.28-.29.55-.44.82a42.66,42.66,0,0,0,6.47,4.27,90.57,90.57,0,0,0,14.1,6q5.56,1.92,10.54,3.31t8.79,2.78a20.1,20.1,0,0,1,6,3.23A5.57,5.57,0,0,1,196,90.58a4.52,4.52,0,0,1-2.17,3.91Q191.64,96,186.08,96a50.07,50.07,0,0,1-14.37-2.09,89.7,89.7,0,0,1-12.62-4.7,101.13,101.13,0,0,1-12.71-6.79l-3.8,7.72L163,123.48Z" transform="translate(-1.41 -0.38)"/><path class="b" d="M147.25,28.68a47,47,0,0,0-4.36-8.29,39,39,0,0,0-2,3.67,41.65,41.65,0,0,0-3.74,18.11,36.22,36.22,0,0,0,1.83,12,26,26,0,0,0,5.66,9.32c.31.34.64.67,1,1l.07-.13a43.92,43.92,0,0,0,4.7-20.11A41.22,41.22,0,0,0,147.25,28.68Z" transform="translate(-1.41 -0.38)"/><path class="b" d="M228.48,106q4.08-7.58,4.09-18.72A37.51,37.51,0,0,0,230,72.47a28.58,28.58,0,0,0-7.49-10.36,43.4,43.4,0,0,0-6.27-4.53V119c.5-.31,1-.62,1.48-1A33.66,33.66,0,0,0,228.48,106Z" transform="translate(-1.41 -0.38)"/><path class="b" d="M220.2,9.35c-1.29-.58-2.63-1.15-4-1.7V39.49l13.41-25.7Q225.43,11.71,220.2,9.35Z" transform="translate(-1.41 -0.38)"/><path class="b" d="M159.28,123.09,141,93.3l-9.27,18.87a87.75,87.75,0,0,0,12.1,5.92,123.5,123.5,0,0,0,13.58,4.52Z" transform="translate(-1.41 -0.38)"/><path class="c" d="M125.49,5.17a37.54,37.54,0,0,0-16.72-3.74H52V125.05H86v-38H98.67l23.51,38h32.87a126.21,126.21,0,0,1-12.31-4.18,89.33,89.33,0,0,1-12.52-6.12l-2.38-1.42,1.22-2.49,10.1-20.57-6.54-10.66A40.78,40.78,0,0,0,144.11,67.2c-.58-.54-1.14-1.09-1.66-1.65a29.17,29.17,0,0,1-6.3-10.37,39.37,39.37,0,0,1-2-13,44.64,44.64,0,0,1,4-19.4,43.3,43.3,0,0,1,2.82-5c-.75-1-1.54-1.93-2.38-2.85A43.65,43.65,0,0,0,125.49,5.17ZM113.21,54q-2.7,3.48-5.83,3.48H86V31h20.55c2.09,0,4.17,1.13,6.26,3.39s3.14,5.55,3.14,9.84S115,51.69,113.21,54Z" transform="translate(-1.41 -0.38)"/><path class="a" d="M37.78,121.4a22.31,22.31,0,0,1-4.51-.41,11.52,11.52,0,0,1-3.51-1.33A11,11,0,0,1,27,117.28a22.49,22.49,0,0,1-2.41-3.62q-1.48-2.76-2.38-4.38c-.6-1.07-1.09-1.88-1.46-2.43a3.76,3.76,0,0,0-.95-1,1.67,1.67,0,0,0-.85-.23,2.23,2.23,0,0,0-1.89.82,3.69,3.69,0,0,0-.61,2.25,6.35,6.35,0,0,0,.87,3.21A12.79,12.79,0,0,0,20.1,115l-7.22,6.14a10.16,10.16,0,0,1-2-2.51,18.94,18.94,0,0,1-1.54-3.4A25.79,25.79,0,0,1,8,107c0-3.92.82-6.9,2.44-8.93a8.16,8.16,0,0,1,6.78-3,8.54,8.54,0,0,1,5.05,1.51,9.18,9.18,0,0,1,1.82,1.66,23.84,23.84,0,0,1,1.54,2c.58.86,1.13,1.75,1.66,2.69a32.5,32.5,0,0,0,1.77,2.79V94.4h8.71Z" transform="translate(-1.41 -0.38)"/><path class="a" d="M22.77,62.49a18,18,0,0,1,6.22,1,15.09,15.09,0,0,1,4.92,2.84,12.64,12.64,0,0,1,4.38,9.71,12.64,12.64,0,0,1-4.38,9.7A15.11,15.11,0,0,1,29,88.62a18.28,18.28,0,0,1-6.22,1,18.34,18.34,0,0,1-6.23-1,15.16,15.16,0,0,1-4.91-2.85,13.08,13.08,0,0,1-3.26-4.3,13,13,0,0,1,0-10.81,13.19,13.19,0,0,1,3.26-4.3,15.14,15.14,0,0,1,4.91-2.84A18.1,18.1,0,0,1,22.77,62.49Zm0,9.84a9.7,9.7,0,0,0-4.82,1,3.07,3.07,0,0,0-1.84,2.69A3.14,3.14,0,0,0,18,78.86a9.7,9.7,0,0,0,4.82,1,9.55,9.55,0,0,0,4.79-1,3.15,3.15,0,0,0,1.82-2.79,3.08,3.08,0,0,0-1.82-2.69A9.55,9.55,0,0,0,22.77,72.33Z" transform="translate(-1.41 -0.38)"/><path class="a" d="M29.07,33h8.71V56.75H29.07V49.48H18.87a5.12,5.12,0,0,1,1.21,1.43,17.71,17.71,0,0,1,1.1,2.18A16.94,16.94,0,0,1,22,55.52a9.51,9.51,0,0,1,.31,2.21H13.39a5.75,5.75,0,0,0-.53-2,21.93,21.93,0,0,0-1.29-2.56A17.9,17.9,0,0,0,10,50.84a5.07,5.07,0,0,0-1.46-1.36V39.54H29.07Z" transform="translate(-1.41 -0.38)"/><path class="a" d="M26.46.87A10.91,10.91,0,0,1,31.3,1.94,11.52,11.52,0,0,1,35,4.89a13.46,13.46,0,0,1,2.4,4.38,16.4,16.4,0,0,1,.85,5.33,15.78,15.78,0,0,1-.85,5.19A13.51,13.51,0,0,1,35,24.18a12,12,0,0,1-3.84,3,11.08,11.08,0,0,1-5,1.12,7.55,7.55,0,0,1-2.56-.41,9.14,9.14,0,0,1-2.15-1.05,11.08,11.08,0,0,1-1.75-1.4,15,15,0,0,1-1.33-1.54,6.55,6.55,0,0,1-2.61,2.43,7.35,7.35,0,0,1-3.54.95,8.9,8.9,0,0,1-4.63-1.2,11.75,11.75,0,0,1-3.41-3.05A13.31,13.31,0,0,1,2.1,19a14.81,14.81,0,0,1-.69-4.35,14.88,14.88,0,0,1,.69-4.36,14.11,14.11,0,0,1,2-4.12A11,11,0,0,1,7.48,3a8.9,8.9,0,0,1,4.63-1.2,7.57,7.57,0,0,1,3.59,1,6.7,6.7,0,0,1,2.66,2.46,14.28,14.28,0,0,1,1.36-1.56A9.5,9.5,0,0,1,21.54,2.3a11,11,0,0,1,2.25-1A8.21,8.21,0,0,1,26.46.87Zm-14,16.54a2.41,2.41,0,0,0,2.05-.89,3.19,3.19,0,0,0,.66-1.92,3.27,3.27,0,0,0-.66-1.95,2.36,2.36,0,0,0-2.05-.92,2.26,2.26,0,0,0-1.74.79A3,3,0,0,0,10,14.6a2.86,2.86,0,0,0,.72,2A2.27,2.27,0,0,0,12.42,17.41Zm13.47-6.66a3.21,3.21,0,0,0-2.61,1.1,4.12,4.12,0,0,0-.92,2.75,4,4,0,0,0,.94,2.76,3.53,3.53,0,0,0,5.1,0,3.86,3.86,0,0,0,1-2.74,3.83,3.83,0,0,0-1-2.77A3.32,3.32,0,0,0,25.89,10.75Z" transform="translate(-1.41 -0.38)"/></svg>