<svg xmlns="http://www.w3.org/2000/svg" width="460" height="43" viewBox="0 0 460 43">
  <metadata><?xpacket begin="﻿" id="W5M0MpCehiHzreSzNTczkc9d"?>
<x:xmpmeta xmlns:x="adobe:ns:meta/" x:xmptk="Adobe XMP Core 5.6-c142 79.160924, 2017/07/13-01:06:39        ">
   <rdf:RDF xmlns:rdf="http://www.w3.org/1999/02/22-rdf-syntax-ns#">
      <rdf:Description rdf:about=""/>
   </rdf:RDF>
</x:xmpmeta>                          
<?xpacket end="w"?></metadata>
<defs>
    <style>
      .cls-1 {
        fill: #a497a6;
        fill-rule: evenodd;
      }
    </style>
  </defs>
  <path id="decorative_element" data-name="decorative element" class="cls-1" d="M962.569,1298.98a30.486,30.486,0,0,0-1.57-3.5,3.171,3.171,0,0,0-1.307-1.93c-0.785-.97-1.83-0.62-2.266.61l-0.611,1.92c-1.656,3.95-3.137,7.99-4.793,11.93-0.435,1.41-1.656,5.18-1.917,5.79-0.174.62-1.046,0.88-1.046,1.67l1.307,2.55a46.974,46.974,0,0,1,2.441,5.69c1.744,3.78,3.4,7.55,5.055,11.41a1.135,1.135,0,0,0,1.045.88,12.984,12.984,0,0,0,1.658-2.55c1.044-2.45,2.264-4.56,3.224-6.84a5.866,5.866,0,0,1,.523-1.49,58.053,58.053,0,0,0,4.1-9.21,5.215,5.215,0,0,1,.611-1.49c0-.79-3.486-7.46-4.1-9.13-0.7-2.1-1.656-4.2-2.352-6.31h0Zm2.352,16.49c-0.87,2.72-1.743,5.09-2.526,7.63-0.611,2.72-1.656,5-2.441,7.72a2.465,2.465,0,0,1-1.309,1.4c-0.347-1.4-.783-2.54-1.044-3.94-0.175-.62-0.175-1.05-0.348-1.5a57.148,57.148,0,0,0-3.225-9.2,5.762,5.762,0,0,0-.959-1.58,8.185,8.185,0,0,0-.872-1.15c0.872-2.01,5.665-13.58,6.71-16.04a2.669,2.669,0,0,1,.524.87c1.917,3.78,3.4,9.39,5.229,12.9a3.74,3.74,0,0,1,.261,2.89h0Zm-24.142-2.19h-0.87c-3.05-.27-6.014-0.27-8.89-0.27-7.234-.17-23.27.27-30.5,0.27-4.01.17-8.279,0.17-12.463,0.17-3.4-.17-7.059.35-10.634,0H875.59a33.539,33.539,0,0,0-9.762.35c-0.87,0-1.481-.52-2.091-0.52a36.241,36.241,0,0,1-9.152.61l-8.279-.26h-3.747a8,8,0,0,0-3.922-.62l-18.127.27c-3.313,0-6.362-.44-9.761-0.27l-9.5.27H790.877c-3.4,0-7.059-.27-9.849.17a1.434,1.434,0,0,1-1.83,0c-7.059-.44-13.333.18-20.392,0.18-8.891,0-17.867.26-27.367,0.87H729c5.317,0.97,8.454,2.72,13.684,2.29,5.577-.44,10.98-0.27,16.82-0.27h1.83c7.059-.61,13.247,0,20.307-0.17l10.632-.35,6.015-.09a0.567,0.567,0,0,0,.609.44l6.71-.35c2.441,0.52,4.794-.09,7.061.35h16.123c2.092,0.44,4.182.17,6.274,0.44l47.761,0.17c3.747,0,7.93-.61,11.852-0.17a47.319,47.319,0,0,1,6.188,0l12.464-.18c-0.786-.09,21.7-0.09,23.705-0.09,1.307,0,2.876.27,4.01-.35,0.609-.87.609-2.37-0.264-2.89h0Zm36.518,0c-0.959.52-.959,2.02-0.347,2.89,1.219,0.62,2.7.35,4.094,0.35,1.918,0,24.486,0,23.706.09l12.46,0.18a47.308,47.308,0,0,1,6.19,0c3.83-.44,8.11.17,11.85,0.17l47.76-.17c2.09-.27,4.19,0,6.28-0.44h16.03c2.27-.44,4.71.17,7.06-0.35l6.8,0.35a0.564,0.564,0,0,0,.61-0.44l6.02,0.09,10.63,0.35c7.06,0.17,13.25-.44,20.31.17h1.74c5.84,0,11.24-.17,16.82.27,5.23,0.43,8.45-1.32,13.68-2.29h-2.44c-9.41-.61-18.48-0.87-27.28-0.87-7.06,0-13.42-.62-20.39-0.18a1.434,1.434,0,0,1-1.83,0c-2.88-.44-6.45-0.17-9.94-0.17h-10.37l-9.41-.27c-3.49-.17-6.45.27-9.76,0.27l-18.22-.27a8.175,8.175,0,0,0-3.92.62h-3.75l-8.19.26a36.947,36.947,0,0,1-9.24-.61,14.253,14.253,0,0,1-2.09.52,33.427,33.427,0,0,0-9.76-.35h-1.74c-3.66.35-7.24-.17-10.72,0-4.18,0-8.37,0-12.47-.17-7.14,0-23.265-.27-30.412-0.27-2.876,0-5.926,0-8.889.27H977.3Z" transform="translate(-729 -1293)"/>
</svg>