<?xml version="1.0" encoding="utf-8"?>
<!-- Generator: Adobe Illustrator 22.0.0, SVG Export Plug-In . SVG Version: 6.00 Build 0)  -->
<svg version="1.1" id="Layer_1" xmlns="http://www.w3.org/2000/svg" xmlns:xlink="http://www.w3.org/1999/xlink" x="0px" y="0px"
	 viewBox="0 0 50 40.6" style="enable-background:new 0 0 50 40.6;" xml:space="preserve">
<style type="text/css">
	.st0{fill:#FFFFFF;}
</style>
<path id="Logo_FIXED" class="st0" d="M15.7,40.6c18.9,0,29.2-15.6,29.2-29.2c0-0.4,0-0.9,0-1.3c2-1.5,3.7-3.2,5.1-5.3
	c-1.9,0.8-3.9,1.4-5.9,1.6c2.1-1.3,3.7-3.3,4.5-5.7c-2,1.2-4.2,2-6.5,2.5c-3.9-4.1-10.4-4.3-14.5-0.5c-2.7,2.5-3.8,6.2-3,9.8
	C16.4,12.2,8.7,8.3,3.5,1.9C0.8,6.6,2.1,12.6,6.7,15.6c-1.6,0-3.2-0.5-4.6-1.3c0,0,0,0.1,0,0.1c0,4.9,3.4,9.1,8.2,10
	c-1.5,0.4-3.1,0.5-4.6,0.2c1.3,4.2,5.2,7,9.6,7.1c-3.6,2.8-8.1,4.4-12.7,4.4c-0.8,0-1.6,0-2.4-0.1C4.7,39,10.2,40.6,15.7,40.6"/>
</svg>
