<svg xmlns="http://www.w3.org/2000/svg" viewBox="0 0 50 40.6"><defs><style>.a{fill:#352157;}</style></defs><title>icon-twit-purp</title><path class="a" d="M15.72,40.6C34.59,40.6,44.91,25,44.91,11.44c0-.45,0-.89,0-1.33A20.81,20.81,0,0,0,50,4.81a20.44,20.44,0,0,1-5.89,1.61A10.32,10.32,0,0,0,48.62.75a20.62,20.62,0,0,1-6.51,2.49,10.27,10.27,0,0,0-17.49,9.35A29.18,29.18,0,0,1,3.48,1.88,10.25,10.25,0,0,0,6.66,15.56,10.22,10.22,0,0,1,2,14.28v.13a10.26,10.26,0,0,0,8.23,10.05,10.25,10.25,0,0,1-4.64.17,10.27,10.27,0,0,0,9.59,7.12A20.59,20.59,0,0,1,2.45,36.14,22.22,22.22,0,0,1,0,36a29,29,0,0,0,15.72,4.6" transform="translate(0 0)"/></svg>