<svg xmlns="http://www.w3.org/2000/svg" viewBox="0 0 309.69 126.24"><defs><style>.a{fill:#a46bad}.b{fill:#6f76b5}.c{fill:#352157}</style></defs><title>RSP2018_RBG_LONG</title><path class="a" d="M214.79 124.67h34v-38h20.2a38.54 38.54 0 0 0 16.6-3.53 39.26 39.26 0 0 0 12.86-9.52 44.57 44.57 0 0 0 8.27-13.76 44.1 44.1 0 0 0 3-15.93 41.22 41.22 0 0 0-3.13-15.63 45.52 45.52 0 0 0-8.62-13.76 43.57 43.57 0 0 0-13.15-9.75 37.47 37.47 0 0 0-16.71-3.74h-53.32v3q2.72 1.06 5.24 2.19c3.5 1.58 6.7 3.09 9.51 4.5l2.73 1.36-1.41 2.71-14.63 28-1.44 2.81v8.14a48.54 48.54 0 0 1 8.25 5.73 31.64 31.64 0 0 1 8.26 11.44 40.5 40.5 0 0 1 2.86 16c0 7.89-1.5 14.67-4.46 20.14a36.52 36.52 0 0 1-11.75 13.16c-1 .69-2.08 1.33-3.16 1.94zm34-94h17.07a9.53 9.53 0 0 1 6.26 2.78q3.13 2.79 3.14 10.45 0 7.49-2.7 10.36a7.92 7.92 0 0 1-5.83 2.87h-17.99z"/><path class="b" d="M161.99 123.68c2.73.6 5.47 1.11 8.23 1.51a95.53 95.53 0 0 0 13.92 1.05 73.63 73.63 0 0 0 17-2 47 47 0 0 0 10.67-3.9v-64.8c-.81-.42-1.63-.82-2.48-1.21a127.11 127.11 0 0 0-15.43-5.71q-5.4-1.74-9.67-3a56.49 56.49 0 0 1-7.22-2.52 14.62 14.62 0 0 1-4.53-2.88 5.38 5.38 0 0 1-1.57-4 4.86 4.86 0 0 1 2.7-4.7 15.84 15.84 0 0 1 7.23-1.4 38 38 0 0 1 11.4 1.83 100.07 100.07 0 0 1 10.54 3.92 96.11 96.11 0 0 1 9 4.54V6.11c-1.37-.49-2.77-1.01-4.19-1.49a104.21 104.21 0 0 0-12.45-3.31A66.4 66.4 0 0 0 181.88 0a56 56 0 0 0-17.5 2.7 45.6 45.6 0 0 0-14.71 7.92 35.9 35.9 0 0 0-6.38 6.71 49.61 49.61 0 0 1 5.3 9.84 44.33 44.33 0 0 1 3.35 16.71 47.18 47.18 0 0 1-5 21.46c-.14.28-.29.55-.44.82a42.66 42.66 0 0 0 6.47 4.27 90.57 90.57 0 0 0 14.1 6q5.56 1.92 10.54 3.31t8.79 2.78a20.1 20.1 0 0 1 6 3.23 5.57 5.57 0 0 1 2.19 4.45 4.52 4.52 0 0 1-2.17 3.91q-2.19 1.51-7.75 1.51a50.07 50.07 0 0 1-14.37-2.09 89.7 89.7 0 0 1-12.62-4.7 101.13 101.13 0 0 1-12.71-6.79l-3.8 7.72 20.42 33.34z"/><path class="b" d="M145.84 28.3a47 47 0 0 0-4.36-8.29 39 39 0 0 0-2 3.67 41.65 41.65 0 0 0-3.74 18.11 36.22 36.22 0 0 0 1.83 12 26 26 0 0 0 5.66 9.32c.31.34.64.67 1 1l.07-.13a43.92 43.92 0 0 0 4.7-20.11 41.22 41.22 0 0 0-3.16-15.57zm81.23 77.32q4.08-7.58 4.09-18.72a37.51 37.51 0 0 0-2.57-14.81 28.58 28.58 0 0 0-7.49-10.36 43.4 43.4 0 0 0-6.27-4.53v61.42c.5-.31 1-.62 1.48-1a33.66 33.66 0 0 0 10.76-12zm-8.28-96.65c-1.29-.58-2.63-1.15-4-1.7v31.84l13.41-25.7q-4.18-2.08-9.41-4.44zm-60.92 113.74l-18.28-29.79-9.27 18.87a87.75 87.75 0 0 0 12.1 5.92 123.5 123.5 0 0 0 13.58 4.52z"/><path class="c" d="M124.08 4.79a37.54 37.54 0 0 0-16.72-3.74H50.59v123.62h34v-38h12.67l23.51 38h32.87a126.21 126.21 0 0 1-12.31-4.18 89.33 89.33 0 0 1-12.52-6.12l-2.38-1.42 1.22-2.49 10.1-20.57-6.54-10.66a40.78 40.78 0 0 0 11.49-12.41c-.58-.54-1.14-1.09-1.66-1.65a29.17 29.17 0 0 1-6.3-10.37 39.37 39.37 0 0 1-2-13 44.64 44.64 0 0 1 4-19.4 43.3 43.3 0 0 1 2.82-5c-.75-1-1.54-1.93-2.38-2.85a43.65 43.65 0 0 0-13.1-9.76zM111.8 53.62q-2.7 3.48-5.83 3.48H84.59V30.62h20.55c2.09 0 4.17 1.13 6.26 3.39s3.14 5.55 3.14 9.84-.95 7.46-2.74 9.77z"/><path class="a" d="M36.37 121.02a22.31 22.31 0 0 1-4.51-.41 11.52 11.52 0 0 1-3.51-1.33 11 11 0 0 1-2.76-2.38 22.49 22.49 0 0 1-2.41-3.62q-1.48-2.76-2.38-4.38c-.6-1.07-1.09-1.88-1.46-2.43a3.76 3.76 0 0 0-.95-1 1.67 1.67 0 0 0-.85-.23 2.23 2.23 0 0 0-1.89.82 3.69 3.69 0 0 0-.61 2.25 6.35 6.35 0 0 0 .87 3.21 12.79 12.79 0 0 0 2.78 3.1l-7.22 6.14a10.16 10.16 0 0 1-2-2.51 18.94 18.94 0 0 1-1.54-3.4 25.79 25.79 0 0 1-1.34-8.23c0-3.92.82-6.9 2.44-8.93a8.16 8.16 0 0 1 6.78-3 8.54 8.54 0 0 1 5.05 1.51 9.18 9.18 0 0 1 1.82 1.66 23.84 23.84 0 0 1 1.54 2c.58.86 1.13 1.75 1.66 2.69a32.5 32.5 0 0 0 1.77 2.79V94.02h8.71zM21.36 62.11a18 18 0 0 1 6.22 1 15.09 15.09 0 0 1 4.92 2.84 12.64 12.64 0 0 1 4.38 9.71 12.64 12.64 0 0 1-4.38 9.7 15.11 15.11 0 0 1-4.91 2.88 18.28 18.28 0 0 1-6.22 1 18.34 18.34 0 0 1-6.23-1 15.16 15.16 0 0 1-4.91-2.85 13.08 13.08 0 0 1-3.26-4.3 13 13 0 0 1 0-10.81 13.19 13.19 0 0 1 3.26-4.3 15.14 15.14 0 0 1 4.91-2.84 18.1 18.1 0 0 1 6.22-1.03zm0 9.84a9.7 9.7 0 0 0-4.82 1 3.07 3.07 0 0 0-1.84 2.69 3.14 3.14 0 0 0 1.89 2.84 9.7 9.7 0 0 0 4.82 1 9.55 9.55 0 0 0 4.79-1 3.15 3.15 0 0 0 1.82-2.79A3.08 3.08 0 0 0 26.2 73a9.55 9.55 0 0 0-4.84-1.05zm6.3-39.33h8.71v23.75h-8.71V49.1h-10.2a5.12 5.12 0 0 1 1.21 1.43 17.71 17.71 0 0 1 1.1 2.18 16.94 16.94 0 0 1 .82 2.43 9.51 9.51 0 0 1 .31 2.21h-8.92a5.75 5.75 0 0 0-.53-2 21.93 21.93 0 0 0-1.29-2.56 17.9 17.9 0 0 0-1.57-2.33 5.07 5.07 0 0 0-1.46-1.36v-9.94h20.53zM25.05.49a10.91 10.91 0 0 1 4.84 1.07 11.52 11.52 0 0 1 3.7 2.95 13.46 13.46 0 0 1 2.4 4.38 16.4 16.4 0 0 1 .85 5.33 15.78 15.78 0 0 1-.85 5.19 13.51 13.51 0 0 1-2.4 4.39 12 12 0 0 1-3.84 3 11.08 11.08 0 0 1-5 1.12 7.55 7.55 0 0 1-2.56-.41 9.14 9.14 0 0 1-2.15-1.05 11.08 11.08 0 0 1-1.75-1.4 15 15 0 0 1-1.33-1.54 6.55 6.55 0 0 1-2.61 2.43 7.35 7.35 0 0 1-3.54.95 8.9 8.9 0 0 1-4.63-1.2 11.75 11.75 0 0 1-3.41-3.05 13.31 13.31 0 0 1-2.08-4.03A14.81 14.81 0 0 1 0 14.27a14.88 14.88 0 0 1 .69-4.36 14.11 14.11 0 0 1 2-4.12 11 11 0 0 1 3.38-3.17 8.9 8.9 0 0 1 4.63-1.2 7.57 7.57 0 0 1 3.59 1 6.7 6.7 0 0 1 2.66 2.46 14.28 14.28 0 0 1 1.36-1.56 9.5 9.5 0 0 1 1.82-1.4 11 11 0 0 1 2.25-1 8.21 8.21 0 0 1 2.67-.43zm-14 16.54a2.41 2.41 0 0 0 2.05-.89 3.19 3.19 0 0 0 .66-1.92 3.27 3.27 0 0 0-.66-1.95 2.36 2.36 0 0 0-2.05-.92 2.26 2.26 0 0 0-1.74.79 3 3 0 0 0-.72 2.08 2.86 2.86 0 0 0 .72 2 2.27 2.27 0 0 0 1.7.81zm13.47-6.66a3.21 3.21 0 0 0-2.61 1.1 4.12 4.12 0 0 0-.92 2.75 4 4 0 0 0 .94 2.76 3.53 3.53 0 0 0 5.1 0 3.86 3.86 0 0 0 1-2.74 3.83 3.83 0 0 0-1-2.77 3.32 3.32 0 0 0-2.55-1.1z"/></svg>